<svg width="512" height="512" viewBox="0 0 512 512" fill="none" xmlns="http://www.w3.org/2000/svg">
<g id="Type=Default" clip-path="url(#clip0_324_586)">
<g id="Group">
<rect id="Rectangle-path" width="512" height="512" fill="#F26522"/>
<path id="Shape" fill-rule="evenodd" clip-rule="evenodd" d="M211.072 319.918H289.386V298.612H235.257V265.597H285.163V244.291H235.257V213.388H289.386V192.082H211.072V319.918ZM393.996 285.176C393.996 259.647 392.269 254.081 357.911 245.827C335.837 240.452 335.453 240.069 335.453 225.481C335.453 214.348 338.332 210.893 354.648 210.893C365.78 210.893 378.257 212.428 388.814 214.732L391.501 194.385C378.833 191.506 365.397 190.163 354.264 190.163C321.825 190.163 311.268 201.679 311.268 224.905C311.268 251.969 315.491 257.919 346.394 264.83C369.427 269.82 369.811 270.972 369.811 285.176C369.811 297.46 366.932 301.107 349.465 301.107C336.797 301.107 325.28 298.804 313.379 295.157L309.156 314.16C317.602 318.19 334.493 321.837 349.081 321.837C386.894 321.837 393.996 309.361 393.996 285.176ZM438.528 237.573C438.528 217.995 447.933 214.156 470.583 214.156C474.614 214.156 483.059 214.732 488.626 215.883L490.161 196.305C484.403 194.961 475.189 194.002 468.087 194.002C433.153 194.002 415.11 204.751 415.11 238.533V285.176C415.11 307.249 421.637 321.837 454.651 321.837C484.787 321.837 494 306.866 494 286.903V277.69C494 255.616 484.595 246.019 461.369 246.019C453.116 246.019 445.246 247.171 438.528 249.474V237.573ZM457.722 266.173C466.168 266.173 470.583 269.052 470.583 278.266V287.671C470.583 297.46 466.744 301.683 454.651 301.683C442.559 301.683 438.528 298.228 438.528 287.671V270.204C443.902 267.901 450.812 266.173 457.722 266.173Z" fill="white"/>
</g>
</g>
<defs>
<clipPath id="clip0_324_586">
<rect width="512" height="512" fill="white"/>
</clipPath>
</defs>
</svg>
