<svg width="512" height="512" viewBox="0 0 512 512" fill="none" xmlns="http://www.w3.org/2000/svg">
<path d="M256.574 4.88882L4.875 255.775L256.574 507.82L507.117 255.775L256.574 4.88882Z" fill="#019833"/>
<path d="M256.53 27.9268V6.74756L6.52637 255.821H27.9487L256.53 27.9268Z" fill="#66FE98"/>
<path d="M256.53 27.9268V6.74756L507.31 255.821H484.129L256.53 27.9268Z" fill="#45FE02"/>
<path d="M256.53 484.782V508.229L6.52637 255.821H27.9487L256.53 484.782Z" fill="#017D17"/>
<path d="M256.53 484.782V508.229L507.31 255.821H484.129L256.53 484.782Z" fill="#005D04"/>
<path d="M130.944 460.388H82.4815L63.5554 441.944V89.7533H48.5341L35.6743 76.8756V37.5074L48.9963 23.0578H218.484L233.723 38.3142V75.6803L221.06 91.114H208.254V210.165L328.757 91.114H322.03L308.014 75.999V36.3778L321.785 23.7372H492.86L506.4 37.2942V74.7678L130.944 460.388Z" fill="black"/>
<path d="M256.53 511.689L1 255.821L256.53 1L511.008 255.821L256.53 511.689ZM8.82742 255.821L256.53 503.856L503.176 255.821L256.53 8.83938L8.82742 255.821Z" fill="black"/>
<path d="M216.309 46.307L223.837 41.444L216.145 33.4592H53.1084L44.8247 41.7548V73.1322L54.0088 82.3283L58.3897 73.1322L52.6282 67.3608V45.2412L56.9493 41.3942L210.876 41.5835L216.309 46.307Z" fill="#FEFEFE"/>
<path d="M83.5934 72.3871V439.621L88.7572 444.537L84.6193 452.357L73.7598 441.661V81.908L83.5934 72.3871Z" fill="#FEFEFE"/>
<path d="M57.2521 72.3871L54.0088 82.3283H73.7039L85.0974 72.3871H57.2521Z" fill="#808080"/>
<path d="M332.766 72.5147L325.879 67.6497V47.9347L333.083 40.7208H483.394L489.157 48.4148L497.359 41.9421L488.916 34.2282H327.319L319.275 42.2827V73.9012L327.746 81.5673M197.026 233.593L181.33 271.732L358.533 93.8095L357.667 72.2855L197.026 233.593Z" fill="#FEFEFE"/>
<path d="M215.954 46.1656L223.837 41.444V72.3872L214.839 81.398H197.351L197.026 233.593L181.389 271.645V72.3872H210.593L216.026 67.9664L215.954 46.1656Z" fill="#808080"/>
<path d="M488.623 46.2672L497.359 41.9421V70.1977L125.33 452.357H84.6191L88.5916 444.846L119.859 444.848L488.677 63.5138L488.623 46.2672Z" fill="#808080"/>
<path d="M357.667 72.2856L348.606 81.388L327.746 81.5673L332.84 72.423C333.009 72.423 357.667 72.2856 357.667 72.2856Z" fill="#808080"/>
<path d="M331.655 40.426L325.897 46.1895V67.3548L330.939 72.4031H357.579V92.8532L181.348 271.721V72.6561H210.635L216.644 66.6396V45.2213L211.098 40.93H56.9676L51.9253 45.9803V67.8588L57.0513 72.9928H83.8605V439.565L88.9029 444.613H119.368L488.683 63.0197V46.1895L482.926 40.426H331.655Z" fill="#CCCCCC"/>
<path d="M119.575 445.101H88.7014L83.3742 439.766V73.4789H56.8498L51.439 68.06V45.7771L56.7662 40.4439H211.265L217.132 44.9822V66.8408L210.838 73.1422H181.834V270.533L357.093 92.652V72.8912H330.738L325.411 67.556V45.9883L331.451 39.9379H483.127L489.169 45.9883V63.217L489.034 63.3584L119.575 445.101ZM89.1058 444.127H119.162L488.197 62.8245V46.3907L482.724 40.9121H331.856L326.383 46.3907V67.1536L331.14 71.917H358.067V93.0524L357.928 93.1939L180.861 272.908V72.17H210.434L216.158 66.4364V45.4603L210.932 41.4161H57.1686L52.4112 46.1815V67.6576L57.2542 72.5067H84.3464V439.362L89.1058 444.127Z" fill="#808080"/>
<path d="M269.085 287.519C268.804 287.577 268.545 287.708 268.328 287.897L261.185 294.039C260.972 294.235 260.813 294.48 260.723 294.755L253.579 314.784C253.364 315.384 253.511 316.053 253.958 316.51L259.42 321.978C259.737 322.283 260.159 322.448 260.598 322.442H282.658C283.096 322.448 283.518 322.283 283.833 321.978L289.59 316.173C289.79 315.974 289.933 315.727 290.011 315.458L296.147 294.376C296.316 293.794 296.155 293.165 295.727 292.736L290.977 287.981C290.662 287.676 290.238 287.511 289.802 287.519H269.421C269.31 287.507 269.196 287.507 269.085 287.519ZM228.663 343.984C228.043 344.118 227.555 344.592 227.401 345.205L224.67 356.061C224.449 356.95 224.989 357.852 225.877 358.073C226.005 358.105 226.134 358.121 226.266 358.123H239.251L207.063 450.144C206.772 451.014 207.24 451.954 208.109 452.245C208.272 452.301 208.443 452.331 208.619 452.333H255.47C256.193 452.343 256.838 451.883 257.068 451.195L260.136 441.308C260.403 440.431 259.91 439.503 259.034 439.234C258.874 439.186 258.707 439.16 258.538 439.162H247.949L279.801 346.174C280.092 345.303 279.623 344.363 278.755 344.072C278.591 344.016 278.418 343.986 278.245 343.984H228.997C228.886 343.974 228.774 343.974 228.663 343.984ZM377.75 344.321C377.39 344.397 377.063 344.588 376.824 344.869L367.076 355.892H351.57L341.233 345.164C340.924 344.843 340.502 344.662 340.057 344.658H303.038C302.341 344.66 301.719 345.096 301.482 345.751L298.079 355.936C297.788 356.804 298.255 357.744 299.123 358.037C299.289 358.091 299.46 358.121 299.633 358.123H309.551L278.707 449.133C278.416 450.004 278.884 450.944 279.753 451.237C279.916 451.291 280.09 451.321 280.263 451.323H319.677C320.374 451.321 320.994 450.885 321.233 450.229L324.257 441.35C324.548 440.481 324.082 439.539 323.213 439.248C323.048 439.192 322.876 439.164 322.703 439.162H315.812L335.477 377.183H371.068L348.63 449.177C348.361 450.054 348.853 450.982 349.73 451.249C349.891 451.299 350.058 451.323 350.226 451.323H388.253C388.915 451.317 389.508 450.921 389.767 450.313L393.17 442.149C393.509 441.298 393.092 440.332 392.242 439.995C392.054 439.921 391.857 439.882 391.658 439.878H384.767L404.769 376.846H438.636L415.861 449.177C415.594 450.054 416.086 450.982 416.961 451.249C417.122 451.299 417.29 451.323 417.459 451.323H459.226C459.911 451.327 460.531 450.909 460.782 450.271L464.185 441.392C464.499 440.531 464.057 439.579 463.196 439.264C463.015 439.196 462.824 439.162 462.631 439.162H454.351L479.523 357.324C479.69 356.806 479.596 356.242 479.27 355.808L471.454 345.289C471.131 344.879 470.631 344.644 470.109 344.658H440.234C439.774 344.65 439.334 344.833 439.015 345.164L429.602 355.513H413.13L403.382 344.827C403.063 344.496 402.621 344.313 402.163 344.321H378.085C377.973 344.311 377.862 344.311 377.75 344.321Z" fill="#CCCCCC"/>
<path d="M256.719 324.783C257.761 325.787 259.123 326.337 260.506 326.337C260.536 326.337 260.566 326.337 260.598 326.335H282.59C284.068 326.381 285.467 325.811 286.6 324.721L292.344 318.926C293.009 318.261 293.497 317.43 293.75 316.545L299.884 295.468C300.452 293.517 299.914 291.414 298.48 289.985L293.681 285.178C292.615 284.15 291.214 283.584 289.802 283.624H269.561C269.27 283.608 268.979 283.614 268.692 283.644L268.284 283.708C267.347 283.905 266.473 284.341 265.789 284.943L258.645 291.087L258.564 291.161C257.868 291.794 257.344 292.595 257.042 293.485L249.913 313.469C249.198 315.464 249.696 317.727 251.202 319.261L256.719 324.783ZM288.901 291.412L292.039 294.553L286.429 313.83L281.755 318.548L261.498 318.55L257.719 314.764L264.208 296.575L270.212 291.412H288.901Z" fill="black"/>
<path d="M482.396 353.485L474.58 342.966L474.51 342.877C473.447 341.526 471.801 340.743 470.078 340.765H440.298C438.75 340.729 437.282 341.354 436.216 342.454L427.881 351.62H414.85L406.259 342.203L406.179 342.118C405.116 341.018 403.643 340.43 402.163 340.428H378.225C377.936 340.412 377.643 340.418 377.356 340.448L376.954 340.51C375.756 340.759 374.659 341.41 373.907 342.289L365.321 351.999H353.226L344.032 342.456C343.006 341.394 341.568 340.777 340.058 340.765H303.026C300.705 340.771 298.616 342.241 297.823 344.424L294.388 354.694C293.414 357.597 294.982 360.753 297.886 361.729C298.436 361.912 299.01 362.01 299.634 362.016H304.12L275.014 447.9C274.046 450.799 275.613 453.953 278.514 454.929C279.066 455.112 279.64 455.21 280.263 455.216H319.689C322.012 455.21 324.104 453.737 324.919 451.484L327.951 442.587C328.921 439.686 327.353 436.533 324.451 435.557C323.899 435.371 323.325 435.274 322.703 435.268H321.132L338.326 381.077H365.775L344.905 448.038C344.01 450.966 345.664 454.076 348.584 454.971C349.124 455.136 349.702 455.204 350.226 455.216H388.287C390.499 455.198 392.487 453.871 393.361 451.811L396.792 443.583C397.918 440.736 396.521 437.503 393.688 436.379C393.057 436.126 392.393 435.995 391.658 435.983H390.088L407.618 380.741H433.327L412.136 448.042C411.246 450.968 412.899 454.078 415.818 454.971C416.346 455.134 416.896 455.216 417.429 455.216H417.459H459.2C461.507 455.202 463.571 453.817 464.418 451.664L467.843 442.729C468.892 439.854 467.41 436.658 464.535 435.606C463.932 435.385 463.296 435.272 462.631 435.268H459.623L483.224 358.531C483.786 356.81 483.471 354.916 482.396 353.485ZM449.08 443.055H459.378L457.7 447.428H420.493L443.946 372.953H401.918L379.446 443.772H388.275L386.751 447.428H353.252L376.36 373.29H332.627L310.491 443.055H319.564L318.074 447.428H283.397L314.982 354.228H302.755L304.652 348.552H339.091L349.915 359.786H368.831L379.061 348.216L401.203 348.214L411.411 359.408H431.325L441.197 348.552H469.028L475.475 357.23L449.08 443.055Z" fill="black"/>
<path d="M260.18 435.513C259.642 435.347 259.104 435.282 258.538 435.268H253.398L283.493 347.413C284.467 344.508 282.897 341.354 279.992 340.378C279.445 340.195 278.871 340.097 278.245 340.091H229.137C228.846 340.075 228.555 340.081 228.267 340.111L227.842 340.179C225.758 340.627 224.141 342.191 223.625 344.255L220.891 355.121C220.152 358.089 221.965 361.107 224.943 361.854C225.366 361.958 225.802 362.014 226.266 362.016H233.763L203.372 448.906C202.398 451.811 203.969 454.965 206.87 455.939C207.422 456.122 207.996 456.22 208.619 456.226H255.414H255.496C257.895 456.226 260.005 454.706 260.787 452.349L263.859 442.446C264.754 439.519 263.1 436.407 260.18 435.513ZM211.785 448.438L244.738 354.228H229.147L230.745 347.879H275.1L242.499 443.055H255.516L253.847 448.438H211.785Z" fill="black"/>
</svg>
