<svg width="510" height="508" viewBox="0 0 510 508" fill="none" xmlns="http://www.w3.org/2000/svg">
<path d="M361.656 505.21C369.688 508.338 378.849 508.139 386.955 504.238L491.957 453.712C502.992 448.402 510.008 437.236 510.008 424.986V82.3938C510.008 70.1433 502.992 58.9767 491.959 53.6674L386.955 3.1409C376.317 -1.979 363.863 -0.724946 354.524 6.0642C353.191 7.03405 351.92 8.1169 350.726 9.31024L149.713 192.699L62.1555 126.236C54.0049 120.049 42.6041 120.556 35.034 127.442L6.95156 152.987C-2.30805 161.41 -2.31867 175.977 6.92863 184.414L82.8616 253.689L6.92863 322.964C-2.31867 331.401 -2.30805 345.968 6.95156 354.392L35.034 379.936C42.6041 386.823 54.0049 387.329 62.1555 381.143L149.713 314.679L350.726 498.068C353.906 501.25 357.641 503.646 361.656 505.21ZM382.584 137.911L230.06 253.689L382.584 369.467V137.911Z" fill="url(#paint0_linear_102_1139)" fill-opacity="0.25"/>
<defs>
<linearGradient id="paint0_linear_102_1139" x1="255.004" y1="-0.000154575" x2="255.004" y2="507.378" gradientUnits="userSpaceOnUse">
<stop stop-color="white"/>
<stop offset="1" stop-color="white" stop-opacity="0"/>
</linearGradient>
</defs>
</svg>
