<svg width="318" height="462" viewBox="0 0 318 462" fill="none" xmlns="http://www.w3.org/2000/svg">
<path d="M237.695 5.37183L250.327 30.3933C253.026 35.7403 260.261 36.6929 264.253 32.2266L282.93 11.3271C287.03 6.73861 294.607 8.76878 295.864 14.7928L301.589 42.2309C302.813 48.0944 309.555 50.8871 314.566 47.6061L338.016 32.2527C343.164 28.8818 349.957 32.8038 349.612 38.9479L348.041 66.9329C347.705 72.9132 353.495 77.3558 359.184 75.4835L385.809 66.7226C391.654 64.7991 397.201 70.3456 395.277 76.191L386.516 102.816C384.644 108.505 389.087 114.295 395.067 113.959L423.052 112.388C429.196 112.043 433.118 118.836 429.747 123.984L414.394 147.434C411.113 152.445 413.906 159.187 419.769 160.411L447.207 166.136C453.231 167.393 455.261 174.97 450.673 179.07L429.773 197.747C425.307 201.739 426.26 208.974 431.607 211.673L456.628 224.305C462.122 227.078 462.122 234.922 456.628 237.695L431.607 250.327C426.26 253.026 425.307 260.261 429.773 264.253L450.673 282.93C455.261 287.03 453.231 294.607 447.207 295.864L419.769 301.589C413.906 302.813 411.113 309.555 414.394 314.566L429.747 338.016C433.118 343.164 429.196 349.957 423.052 349.612L395.067 348.041C389.087 347.705 384.644 353.495 386.516 359.184L395.277 385.809C397.201 391.654 391.654 397.201 385.809 395.277L359.184 386.516C353.495 384.644 347.705 389.087 348.041 395.067L349.612 423.052C349.957 429.196 343.164 433.118 338.016 429.747L314.566 414.394C309.555 411.113 302.813 413.906 301.589 419.769L295.864 447.207C294.607 453.231 287.03 455.261 282.93 450.673L264.253 429.773C260.261 425.307 253.026 426.26 250.327 431.607L237.695 456.628C234.922 462.122 227.078 462.122 224.305 456.628L211.673 431.607C208.974 426.26 201.739 425.307 197.747 429.773L179.07 450.673C174.97 455.261 167.393 453.231 166.136 447.207L160.411 419.769C159.187 413.906 152.445 411.113 147.434 414.394L123.984 429.747C118.836 433.118 112.043 429.196 112.388 423.052L113.959 395.067C114.295 389.087 108.505 384.644 102.816 386.516L76.191 395.277C70.3456 397.201 64.7991 391.654 66.7226 385.809L75.4835 359.184C77.3558 353.495 72.9132 347.705 66.9329 348.041L38.9479 349.612C32.8038 349.957 28.8818 343.164 32.2527 338.016L47.6061 314.566C50.8871 309.555 48.0944 302.813 42.2309 301.589L14.7928 295.864C8.76878 294.607 6.73861 287.03 11.3271 282.93L32.2266 264.253C36.6929 260.261 35.7403 253.026 30.3933 250.327L5.37182 237.695C-0.121586 234.922 -0.12158 227.078 5.37183 224.305L30.3933 211.673C35.7403 208.974 36.6929 201.739 32.2266 197.747L11.3271 179.07C6.73861 174.97 8.76878 167.393 14.7928 166.136L42.2309 160.411C48.0944 159.187 50.8871 152.445 47.6061 147.434L32.2527 123.984C28.8818 118.836 32.8038 112.043 38.9479 112.388L66.9329 113.959C72.9132 114.295 77.3558 108.505 75.4835 102.816L66.7226 76.191C64.7991 70.3456 70.3456 64.7991 76.191 66.7226L102.816 75.4835C108.505 77.3558 114.295 72.9132 113.959 66.9329L112.388 38.9479C112.043 32.8038 118.836 28.8818 123.984 32.2527L147.434 47.6061C152.445 50.8871 159.187 48.0944 160.411 42.2309L166.136 14.7928C167.393 8.76878 174.97 6.73861 179.07 11.3271L197.747 32.2266C201.739 36.6929 208.974 35.7403 211.673 30.3933L224.305 5.37182C227.078 -0.121586 234.922 -0.12158 237.695 5.37183Z" fill="#0A0A0A" stroke="url(#paint0_linear_94_97)"/>
<defs>
<linearGradient id="paint0_linear_94_97" x1="-9" y1="-9" x2="471" y2="471" gradientUnits="userSpaceOnUse">
<stop stop-color="#111"/>
<stop offset="1" stop-color="#111" stop-opacity="0"/>
</linearGradient>
</defs>
</svg>
